<?xml version="1.0" encoding="utf-8"?>
<!-- Generator: Adobe Illustrator 23.0.1, SVG Export Plug-In . SVG Version: 6.00 Build 0)  -->
<svg version="1.1" id="Layer_1" xmlns="http://www.w3.org/2000/svg" xmlns:xlink="http://www.w3.org/1999/xlink" x="0px" y="0px"
	 viewBox="0 0 1000 1000" style="enable-background:new 0 0 1000 1000;" xml:space="preserve">
<style type="text/css">
	.st0{fill:#020202;}
	.st1{fill-rule:evenodd;clip-rule:evenodd;fill:#020202;}
	.st2{fill-rule:evenodd;clip-rule:evenodd;fill:none;stroke:#000000;stroke-width:18;stroke-miterlimit:10;}
	.st3{fill-rule:evenodd;clip-rule:evenodd;fill:#ED1C24;}
	.st4{fill-rule:evenodd;clip-rule:evenodd;fill:#FFDE17;}
	.st5{fill-rule:evenodd;clip-rule:evenodd;fill:#EF4136;}
	.st6{fill-rule:evenodd;clip-rule:evenodd;fill:#EC008C;}
	.st7{fill-rule:evenodd;clip-rule:evenodd;fill:#009444;}
	.st8{fill-rule:evenodd;clip-rule:evenodd;fill:#662D91;}
	.st9{fill-rule:evenodd;clip-rule:evenodd;fill:#1B75BC;}
	.st10{fill-rule:evenodd;clip-rule:evenodd;fill:#9E1F63;}
	.st11{fill-rule:evenodd;clip-rule:evenodd;fill:#603913;}
	.st12{fill-rule:evenodd;clip-rule:evenodd;fill:#594A42;}
	.st13{fill-rule:evenodd;clip-rule:evenodd;fill:#DA1C5C;}
	.st14{fill-rule:evenodd;clip-rule:evenodd;fill:#DB8F8D;}
	.st15{fill-rule:evenodd;clip-rule:evenodd;fill:#F9C6DC;}
	.st16{fill-rule:evenodd;clip-rule:evenodd;fill:#BCBEC0;}
	.st17{fill:#2F67B2;}
	.st18{fill:#EA4535;}
	.st19{fill:#F9BC15;}
	.st20{fill:#36A852;}
	.st21{clip-path:url(#SVGID_2_);fill:#527BBE;}
	.st22{clip-path:url(#SVGID_4_);fill:#34A752;}
	.st23{clip-path:url(#SVGID_6_);fill:#F7BB17;}
	.st24{clip-path:url(#SVGID_8_);fill:#E84234;}
	.st25{clip-path:url(#SVGID_10_);fill:#527BBE;}
	.st26{clip-path:url(#SVGID_12_);fill:#34A752;}
	.st27{clip-path:url(#SVGID_14_);fill:#F7BB17;}
	.st28{clip-path:url(#SVGID_16_);fill:#E84234;}
	.st29{clip-path:url(#SVGID_18_);fill:#527BBE;}
	.st30{clip-path:url(#SVGID_20_);fill:#34A752;}
	.st31{clip-path:url(#SVGID_22_);fill:#F7BB17;}
	.st32{clip-path:url(#SVGID_24_);fill:#E84234;}
	.st33{clip-path:url(#SVGID_26_);fill:#527BBE;}
	.st34{clip-path:url(#SVGID_28_);fill:#34A752;}
	.st35{clip-path:url(#SVGID_30_);fill:#F7BB17;}
	.st36{clip-path:url(#SVGID_32_);fill:#E84234;}
	.st37{clip-path:url(#SVGID_34_);fill:#527BBE;}
	.st38{clip-path:url(#SVGID_36_);fill:#34A752;}
	.st39{clip-path:url(#SVGID_38_);fill:#F7BB17;}
	.st40{clip-path:url(#SVGID_40_);fill:#E84234;}
	.st41{fill:#FFFFFF;}
	.st42{clip-path:url(#SVGID_42_);fill:#FFFFFF;}
	.st43{clip-path:url(#SVGID_44_);fill:#FFFFFF;}
	.st44{clip-path:url(#SVGID_46_);fill:#FFFFFF;}
	.st45{clip-path:url(#SVGID_48_);fill:#FFFFFF;}
	.st46{clip-path:url(#SVGID_50_);fill:#FFFFFF;}
	.st47{clip-path:url(#SVGID_52_);fill:#FFFFFF;}
	.st48{clip-path:url(#SVGID_54_);fill:#FFFFFF;}
	.st49{clip-path:url(#SVGID_56_);fill:#FFFFFF;}
	.st50{clip-path:url(#SVGID_58_);fill:#020202;}
	.st51{clip-path:url(#SVGID_60_);fill:#020202;}
	.st52{clip-path:url(#SVGID_62_);fill:#020202;}
	.st53{clip-path:url(#SVGID_64_);fill:#020202;}
	.st54{clip-path:url(#SVGID_66_);fill:#FFFFFF;}
	.st55{clip-path:url(#SVGID_68_);fill:#FFFFFF;}
	.st56{clip-path:url(#SVGID_70_);fill:#FFFFFF;}
	.st57{clip-path:url(#SVGID_72_);fill:#FFFFFF;}
	.st58{clip-path:url(#SVGID_74_);fill:#FFFFFF;}
	.st59{clip-path:url(#SVGID_76_);fill:#FFFFFF;}
	.st60{clip-path:url(#SVGID_78_);fill:#FFFFFF;}
	.st61{clip-path:url(#SVGID_80_);fill:#FFFFFF;}
	.st62{clip-path:url(#SVGID_82_);fill:#FFFFFF;}
	.st63{clip-path:url(#SVGID_84_);fill:#FFFFFF;}
	.st64{clip-path:url(#SVGID_86_);fill:#FFFFFF;}
	.st65{clip-path:url(#SVGID_88_);fill:#FFFFFF;}
	.st66{clip-path:url(#SVGID_90_);fill:#FFFFFF;}
	.st67{clip-path:url(#SVGID_92_);fill:#FFFFFF;}
	.st68{clip-path:url(#SVGID_94_);fill:#FFFFFF;}
	.st69{clip-path:url(#SVGID_96_);fill:#FFFFFF;}
	.st70{clip-path:url(#SVGID_98_);fill:#FFFFFF;}
	.st71{clip-path:url(#SVGID_100_);fill:#FFFFFF;}
	.st72{clip-path:url(#SVGID_102_);fill:#FFFFFF;}
	.st73{clip-path:url(#SVGID_104_);fill:#FFFFFF;}
	.st74{clip-path:url(#SVGID_106_);fill:#FFFFFF;}
	.st75{clip-path:url(#SVGID_108_);fill:#FFFFFF;}
	.st76{clip-path:url(#SVGID_110_);fill:#FFFFFF;}
	.st77{clip-path:url(#SVGID_112_);fill:#FFFFFF;}
	.st78{clip-path:url(#SVGID_114_);fill:#FFFFFF;}
	.st79{clip-path:url(#SVGID_116_);fill:#FFFFFF;}
	.st80{clip-path:url(#SVGID_118_);fill:#FFFFFF;}
	.st81{clip-path:url(#SVGID_120_);fill:#FFFFFF;}
	.st82{clip-path:url(#SVGID_122_);fill:#FFFFFF;}
	.st83{clip-path:url(#SVGID_124_);fill:#FFFFFF;}
	.st84{clip-path:url(#SVGID_126_);fill:#FFFFFF;}
	.st85{clip-path:url(#SVGID_128_);fill:#FFFFFF;}
	.st86{clip-path:url(#SVGID_130_);fill:#FFFFFF;}
	.st87{clip-path:url(#SVGID_132_);fill:#FFFFFF;}
	.st88{clip-path:url(#SVGID_134_);fill:#FFFFFF;}
	.st89{clip-path:url(#SVGID_136_);fill:#FFFFFF;}
	.st90{clip-path:url(#SVGID_138_);fill:#FFFFFF;}
	.st91{clip-path:url(#SVGID_140_);fill:#FFFFFF;}
	.st92{clip-path:url(#SVGID_142_);fill:#FFFFFF;}
	.st93{clip-path:url(#SVGID_144_);fill:#FFFFFF;}
	.st94{clip-path:url(#SVGID_146_);fill:#FFFFFF;}
	.st95{clip-path:url(#SVGID_148_);fill:#FFFFFF;}
	.st96{clip-path:url(#SVGID_150_);fill:#FFFFFF;}
	.st97{clip-path:url(#SVGID_152_);fill:#FFFFFF;}
	.st98{clip-path:url(#SVGID_154_);fill:#FFFFFF;}
	.st99{clip-path:url(#SVGID_156_);fill:#FFFFFF;}
	.st100{clip-path:url(#SVGID_158_);fill:#FFFFFF;}
	.st101{clip-path:url(#SVGID_160_);fill:#FFFFFF;}
	.st102{clip-path:url(#SVGID_162_);fill:#FFFFFF;}
	.st103{clip-path:url(#SVGID_164_);fill:#FFFFFF;}
	.st104{clip-path:url(#SVGID_166_);fill:#FFFFFF;}
	.st105{clip-path:url(#SVGID_168_);fill:#FFFFFF;}
	.st106{clip-path:url(#SVGID_170_);fill:#FFFFFF;}
	.st107{clip-path:url(#SVGID_172_);fill:#FFFFFF;}
	.st108{clip-path:url(#SVGID_174_);fill:#FFFFFF;}
	.st109{clip-path:url(#SVGID_176_);fill:#FFFFFF;}
	.st110{clip-path:url(#SVGID_178_);fill:#FFFFFF;}
	.st111{clip-path:url(#SVGID_180_);fill:#FFFFFF;}
	.st112{clip-path:url(#SVGID_182_);fill:#FFFFFF;}
	.st113{clip-path:url(#SVGID_184_);fill:#FFFFFF;}
	.st114{fill:#EC008C;}
	.st115{clip-path:url(#SVGID_186_);fill:#EC008C;}
	.st116{clip-path:url(#SVGID_188_);fill:#EC008C;}
	.st117{clip-path:url(#SVGID_190_);fill:#EC008C;}
	.st118{clip-path:url(#SVGID_192_);fill:#EC008C;}
	.st119{fill:#1B75BC;}
	.st120{clip-path:url(#SVGID_194_);fill:#1B75BC;}
	.st121{clip-path:url(#SVGID_196_);fill:#1B75BC;}
	.st122{clip-path:url(#SVGID_198_);fill:#1B75BC;}
	.st123{clip-path:url(#SVGID_200_);fill:#1B75BC;}
	.st124{fill:#594A42;}
	.st125{clip-path:url(#SVGID_202_);fill:#594A42;}
	.st126{clip-path:url(#SVGID_204_);fill:#594A42;}
	.st127{clip-path:url(#SVGID_206_);fill:#594A42;}
	.st128{clip-path:url(#SVGID_208_);fill:#594A42;}
	.st129{fill:#F9C6DC;}
	.st130{clip-path:url(#SVGID_218_);fill:#F9C6DC;}
	.st131{clip-path:url(#SVGID_220_);fill:#F9C6DC;}
	.st132{clip-path:url(#SVGID_222_);fill:#F9C6DC;}
	.st133{clip-path:url(#SVGID_224_);fill:#F9C6DC;}
	.st134{fill:#ED1C24;}
	.st135{clip-path:url(#SVGID_234_);fill:#ED1C24;}
	.st136{clip-path:url(#SVGID_236_);fill:#ED1C24;}
	.st137{clip-path:url(#SVGID_238_);fill:#ED1C24;}
	.st138{clip-path:url(#SVGID_240_);fill:#ED1C24;}
	.st139{fill:#EF4136;}
	.st140{clip-path:url(#SVGID_242_);fill:#EF4136;}
	.st141{clip-path:url(#SVGID_244_);fill:#EF4136;}
	.st142{clip-path:url(#SVGID_246_);fill:#EF4136;}
	.st143{clip-path:url(#SVGID_248_);fill:#EF4136;}
	.st144{fill:#662D91;}
	.st145{clip-path:url(#SVGID_250_);fill:#662D91;}
	.st146{clip-path:url(#SVGID_252_);fill:#662D91;}
	.st147{clip-path:url(#SVGID_254_);fill:#662D91;}
	.st148{clip-path:url(#SVGID_256_);fill:#662D91;}
	.st149{fill:#603913;}
	.st150{clip-path:url(#SVGID_258_);fill:#603913;}
	.st151{clip-path:url(#SVGID_260_);fill:#603913;}
	.st152{clip-path:url(#SVGID_262_);fill:#603913;}
	.st153{clip-path:url(#SVGID_264_);fill:#603913;}
	.st154{fill:#DB8F8D;}
	.st155{clip-path:url(#SVGID_274_);fill:#DB8F8D;}
	.st156{clip-path:url(#SVGID_276_);fill:#DB8F8D;}
	.st157{clip-path:url(#SVGID_278_);fill:#DB8F8D;}
	.st158{clip-path:url(#SVGID_280_);fill:#DB8F8D;}
	.st159{fill:#FFDE17;}
	.st160{clip-path:url(#SVGID_290_);fill:#FFDE17;}
	.st161{clip-path:url(#SVGID_292_);fill:#FFDE17;}
	.st162{clip-path:url(#SVGID_294_);fill:#FFDE17;}
	.st163{clip-path:url(#SVGID_296_);fill:#FFDE17;}
	.st164{fill:#009444;}
	.st165{clip-path:url(#SVGID_298_);fill:#009444;}
	.st166{clip-path:url(#SVGID_300_);fill:#009444;}
	.st167{clip-path:url(#SVGID_302_);fill:#009444;}
	.st168{clip-path:url(#SVGID_304_);fill:#009444;}
	.st169{fill:#9E1F63;}
	.st170{clip-path:url(#SVGID_306_);fill:#9E1F63;}
	.st171{clip-path:url(#SVGID_308_);fill:#9E1F63;}
	.st172{clip-path:url(#SVGID_310_);fill:#9E1F63;}
	.st173{clip-path:url(#SVGID_312_);fill:#9E1F63;}
	.st174{fill:#DA1C5C;}
	.st175{clip-path:url(#SVGID_314_);fill:#DA1C5C;}
	.st176{clip-path:url(#SVGID_316_);fill:#DA1C5C;}
	.st177{clip-path:url(#SVGID_318_);fill:#DA1C5C;}
	.st178{clip-path:url(#SVGID_320_);fill:#DA1C5C;}
	.st179{fill:#BCBEC0;}
	.st180{clip-path:url(#SVGID_322_);fill:#BCBEC0;}
	.st181{clip-path:url(#SVGID_324_);fill:#BCBEC0;}
	.st182{clip-path:url(#SVGID_326_);fill:#BCBEC0;}
	.st183{clip-path:url(#SVGID_328_);fill:#BCBEC0;}
	.st184{clip-path:url(#SVGID_330_);fill:#FFFFFF;}
	.st185{clip-path:url(#SVGID_332_);fill:#FFFFFF;}
	.st186{clip-path:url(#SVGID_334_);fill:#FFFFFF;}
	.st187{clip-path:url(#SVGID_336_);fill:#FFFFFF;}
	.st188{clip-path:url(#SVGID_338_);fill:#FFFFFF;}
	.st189{clip-path:url(#SVGID_340_);fill:#FFFFFF;}
	.st190{clip-path:url(#SVGID_342_);fill:#FFFFFF;}
	.st191{clip-path:url(#SVGID_344_);fill:#FFFFFF;}
	.st192{clip-path:url(#SVGID_346_);fill:#FFFFFF;}
	.st193{clip-path:url(#SVGID_348_);fill:#FFFFFF;}
	.st194{clip-path:url(#SVGID_350_);fill:#FFFFFF;}
	.st195{clip-path:url(#SVGID_352_);fill:#FFFFFF;}
	.st196{clip-path:url(#SVGID_354_);fill:#527BBE;}
	.st197{clip-path:url(#SVGID_356_);fill:#34A752;}
	.st198{clip-path:url(#SVGID_358_);fill:#F7BB17;}
	.st199{clip-path:url(#SVGID_360_);fill:#E84234;}
	.st200{clip-path:url(#SVGID_362_);fill:#527BBE;}
	.st201{clip-path:url(#SVGID_364_);fill:#34A752;}
	.st202{clip-path:url(#SVGID_366_);fill:#F7BB17;}
	.st203{clip-path:url(#SVGID_368_);fill:#E84234;}
	.st204{clip-path:url(#SVGID_370_);fill:#527BBE;}
	.st205{clip-path:url(#SVGID_372_);fill:#34A752;}
	.st206{clip-path:url(#SVGID_374_);fill:#F7BB17;}
	.st207{clip-path:url(#SVGID_376_);fill:#E84234;}
	.st208{clip-path:url(#SVGID_378_);fill:#527BBE;}
	.st209{clip-path:url(#SVGID_380_);fill:#34A752;}
	.st210{clip-path:url(#SVGID_382_);fill:#F7BB17;}
	.st211{clip-path:url(#SVGID_384_);fill:#E84234;}
	.st212{clip-path:url(#SVGID_386_);fill:#527BBE;}
	.st213{clip-path:url(#SVGID_388_);fill:#34A752;}
	.st214{clip-path:url(#SVGID_390_);fill:#F7BB17;}
	.st215{clip-path:url(#SVGID_392_);fill:#E84234;}
	.st216{clip-path:url(#SVGID_394_);fill:#527BBE;}
	.st217{clip-path:url(#SVGID_396_);fill:#34A752;}
	.st218{clip-path:url(#SVGID_398_);fill:#F7BB17;}
	.st219{clip-path:url(#SVGID_400_);fill:#E84234;}
	.st220{clip-path:url(#SVGID_402_);fill:#527BBE;}
	.st221{clip-path:url(#SVGID_404_);fill:#34A752;}
	.st222{clip-path:url(#SVGID_406_);fill:#F7BB17;}
	.st223{clip-path:url(#SVGID_408_);fill:#E84234;}
	.st224{clip-path:url(#SVGID_410_);fill:#527BBE;}
	.st225{clip-path:url(#SVGID_412_);fill:#34A752;}
	.st226{clip-path:url(#SVGID_414_);fill:#F7BB17;}
	.st227{clip-path:url(#SVGID_416_);fill:#E84234;}
	.st228{clip-path:url(#SVGID_418_);fill:#527BBE;}
	.st229{clip-path:url(#SVGID_420_);fill:#34A752;}
	.st230{clip-path:url(#SVGID_422_);fill:#F7BB17;}
	.st231{clip-path:url(#SVGID_424_);fill:#E84234;}
	.st232{clip-path:url(#SVGID_426_);fill:#527BBE;}
	.st233{clip-path:url(#SVGID_428_);fill:#34A752;}
	.st234{clip-path:url(#SVGID_430_);fill:#F7BB17;}
	.st235{clip-path:url(#SVGID_432_);fill:#E84234;}
	.st236{clip-path:url(#SVGID_434_);fill:#527BBE;}
	.st237{clip-path:url(#SVGID_436_);fill:#34A752;}
	.st238{clip-path:url(#SVGID_438_);fill:#F7BB17;}
	.st239{clip-path:url(#SVGID_440_);fill:#E84234;}
	.st240{clip-path:url(#SVGID_442_);fill:#527BBE;}
	.st241{clip-path:url(#SVGID_444_);fill:#34A752;}
	.st242{clip-path:url(#SVGID_446_);fill:#F7BB17;}
	.st243{clip-path:url(#SVGID_448_);fill:#E84234;}
	.st244{clip-path:url(#SVGID_450_);fill:#527BBE;}
	.st245{clip-path:url(#SVGID_452_);fill:#34A752;}
	.st246{clip-path:url(#SVGID_454_);fill:#F7BB17;}
	.st247{clip-path:url(#SVGID_456_);fill:#E84234;}
	.st248{clip-path:url(#SVGID_458_);fill:#527BBE;}
	.st249{clip-path:url(#SVGID_460_);fill:#34A752;}
	.st250{clip-path:url(#SVGID_462_);fill:#F7BB17;}
	.st251{clip-path:url(#SVGID_464_);fill:#E84234;}
	.st252{clip-path:url(#SVGID_466_);fill:#527BBE;}
	.st253{clip-path:url(#SVGID_468_);fill:#34A752;}
	.st254{clip-path:url(#SVGID_470_);fill:#F7BB17;}
	.st255{clip-path:url(#SVGID_472_);fill:#E84234;}
	.st256{clip-path:url(#SVGID_474_);fill:#527BBE;}
	.st257{clip-path:url(#SVGID_476_);fill:#34A752;}
	.st258{clip-path:url(#SVGID_478_);fill:#F7BB17;}
	.st259{clip-path:url(#SVGID_480_);fill:#E84234;}
	.st260{clip-path:url(#SVGID_482_);fill:#527BBE;}
	.st261{clip-path:url(#SVGID_484_);fill:#34A752;}
	.st262{clip-path:url(#SVGID_486_);fill:#F7BB17;}
	.st263{clip-path:url(#SVGID_488_);fill:#E84234;}
	.st264{clip-path:url(#SVGID_490_);fill:#527BBE;}
	.st265{clip-path:url(#SVGID_492_);fill:#34A752;}
	.st266{clip-path:url(#SVGID_494_);fill:#F7BB17;}
	.st267{clip-path:url(#SVGID_496_);fill:#E84234;}
	.st268{clip-path:url(#SVGID_498_);fill:#527BBE;}
	.st269{clip-path:url(#SVGID_500_);fill:#34A752;}
	.st270{clip-path:url(#SVGID_502_);fill:#F7BB17;}
	.st271{clip-path:url(#SVGID_504_);fill:#E84234;}
	.st272{clip-path:url(#SVGID_506_);fill:#527BBE;}
	.st273{clip-path:url(#SVGID_508_);fill:#34A752;}
	.st274{clip-path:url(#SVGID_510_);fill:#F7BB17;}
	.st275{clip-path:url(#SVGID_512_);fill:#E84234;}
</style>
<g>
	<g>
		<path id="XMLID_1222_" class="st179" d="M315.5,663.1v16.6H355c-1.2,9.3-4.3,16.1-9,20.9c-5.8,5.8-14.8,12.1-30.6,12.1
			c-24.4,0-43.4-19.7-43.4-44c0-24.4,19-44,43.4-44c13.1,0,22.7,5.2,29.8,11.8l11.6-11.6c-9.8-9.6-23-16.8-41.5-16.8
			c-33.4,0-61.4,27.2-61.4,60.6s28.1,60.6,61.4,60.6c18,0,31.6-5.9,42.3-17c10.9-10.9,14.3-26.3,14.3-38.7c0-3.8-0.3-7.4-0.9-10.4
			H315.5z"/>
		<path id="XMLID_1219_" class="st179" d="M421.5,649.6c-21.6,0-39.2,16.4-39.2,39.1c0,22.5,17.6,39.1,39.2,39.1
			c21.6,0,39.2-16.6,39.2-39.1C460.8,666,443.1,649.6,421.5,649.6z M421.5,712.4c-11.8,0-22.1-9.8-22.1-23.7
			c0-14.1,10.2-23.7,22.1-23.7c11.8,0,22.1,9.6,22.1,23.7C443.6,702.6,433.4,712.4,421.5,712.4z"/>
		<path id="XMLID_1216_" class="st179" d="M613.9,658.4h-0.6c-3.8-4.6-11.2-8.7-20.6-8.7c-19.5,0-36.5,17-36.5,39.1
			c0,21.9,17,39.1,36.5,39.1c9.4,0,16.8-4.2,20.6-8.9h0.6v5.5c0,14.9-8,23-20.9,23c-10.5,0-17-7.5-19.7-13.9l-14.9,6.2
			c4.3,10.4,15.7,23.1,34.7,23.1c20.1,0,37.2-11.8,37.2-40.7v-70.3h-16.3V658.4z M594.2,712.4c-11.8,0-20.9-10.1-20.9-23.7
			c0-13.8,9-23.7,20.9-23.7c11.7,0,20.9,10.1,20.9,23.8C615.1,702.5,605.9,712.4,594.2,712.4z"/>
		<path id="XMLID_1213_" class="st179" d="M509,649.6c-21.6,0-39.2,16.4-39.2,39.1c0,22.5,17.6,39.1,39.2,39.1
			c21.6,0,39.2-16.6,39.2-39.1C548.3,666,530.6,649.6,509,649.6z M509,712.4c-11.8,0-22.1-9.8-22.1-23.7c0-14.1,10.2-23.7,22.1-23.7
			c11.8,0,22.1,9.6,22.1,23.7C531.1,702.6,520.9,712.4,509,712.4z"/>
		<path id="XMLID_1212_" class="st179" d="M643.6,609.6h16.9v118.3h-16.9V609.6z"/>
		<path id="XMLID_1209_" class="st179" d="M712.7,712.4c-8.7,0-14.9-4-19-11.8L746,679l-1.7-4.4c-3.2-8.7-13.2-24.9-33.4-24.9
			c-20.1,0-36.9,15.8-36.9,39.1c0,21.9,16.6,39.1,38.8,39.1c17.9,0,28.3-11,32.6-17.3l-13.3-8.9
			C727.5,708.1,721.4,712.4,712.7,712.4L712.7,712.4z M711.5,664.3c6.9,0,12.9,3.6,14.8,8.6l-35.3,14.6
			C690.9,671.1,702.6,664.3,711.5,664.3z"/>
	</g>
	<g>
		<g>
			<defs>
				<path id="SVGID_321_" d="M682.6,427.9c0-13.2-1.2-25.9-3.4-38.1H503.7v72.1H604c-4.3,23.3-17.4,43-37.2,56.2v46.8H627
					C662.3,532.4,682.6,484.6,682.6,427.9L682.6,427.9L682.6,427.9z M682.6,427.9"/>
			</defs>
			<use xlink:href="#SVGID_321_"  style="overflow:visible;fill-rule:evenodd;clip-rule:evenodd;fill:#BCBEC0;"/>
			<clipPath id="SVGID_2_">
				<use xlink:href="#SVGID_321_"  style="overflow:visible;"/>
			</clipPath>
			<rect id="XMLID_1208_" x="400.2" y="286.3" style="clip-path:url(#SVGID_2_);fill:#BCBEC0;" width="385.9" height="382.1"/>
		</g>
		<g>
			<defs>
				<path id="SVGID_323_" d="M503.7,610c50.3,0,92.5-16.7,123.3-45.1l-60.2-46.8c-16.7,11.2-38,17.8-63.1,17.8
					c-48.5,0-89.6-32.8-104.3-76.8h-62.2v48.3C367.9,568.2,430.9,610,503.7,610L503.7,610L503.7,610z M503.7,610"/>
			</defs>
			<use xlink:href="#SVGID_323_"  style="overflow:visible;fill-rule:evenodd;clip-rule:evenodd;fill:#BCBEC0;"/>
			<clipPath id="SVGID_4_">
				<use xlink:href="#SVGID_323_"  style="overflow:visible;"/>
			</clipPath>
			<rect id="XMLID_1205_" x="233.7" y="355.5" style="clip-path:url(#SVGID_4_);fill:#BCBEC0;" width="496.9" height="358"/>
		</g>
		<g>
			<defs>
				<path id="SVGID_325_" d="M399.5,459.1c-3.7-11.2-5.8-23.1-5.8-35.4c0-12.3,2.1-24.2,5.8-35.4V340h-62.2
					c-12.6,25.2-19.8,53.6-19.8,83.7c0,30.1,7.2,58.5,19.8,83.7L399.5,459.1L399.5,459.1L399.5,459.1z M399.5,459.1"/>
			</defs>
			<use xlink:href="#SVGID_325_"  style="overflow:visible;fill-rule:evenodd;clip-rule:evenodd;fill:#BCBEC0;"/>
			<clipPath id="SVGID_6_">
				<use xlink:href="#SVGID_325_"  style="overflow:visible;"/>
			</clipPath>
			<rect id="XMLID_1202_" x="213.9" y="236.5" style="clip-path:url(#SVGID_6_);fill:#BCBEC0;" width="289.1" height="374.4"/>
		</g>
		<g>
			<defs>
				<path id="SVGID_327_" d="M503.7,311.4c27.4,0,51.9,9.4,71.2,27.9l53.4-53.4c-32.3-30.1-74.4-48.5-124.7-48.5
					c-72.8,0-135.8,41.8-166.5,102.6l62.2,48.3C414.1,344.2,455.2,311.4,503.7,311.4L503.7,311.4L503.7,311.4z M503.7,311.4"/>
			</defs>
			<use xlink:href="#SVGID_327_"  style="overflow:visible;fill-rule:evenodd;clip-rule:evenodd;fill:#BCBEC0;"/>
			<clipPath id="SVGID_8_">
				<use xlink:href="#SVGID_327_"  style="overflow:visible;"/>
			</clipPath>
			<rect id="XMLID_1199_" x="233.7" y="133.8" style="clip-path:url(#SVGID_8_);fill:#BCBEC0;" width="498.2" height="358"/>
		</g>
	</g>
</g>
</svg>
